<svg width="24" height="24" viewBox="0 0 24 24" fill="none" xmlns="http://www.w3.org/2000/svg">
<path fill-rule="evenodd" clip-rule="evenodd" d="M13.122 1C16.2656 1 18.8141 3.53381 18.8141 6.65942C18.8141 8.25313 18.1515 9.69298 17.0853 10.7215L17.0243 10.6795L17.087 10.7251C18.9012 11.9247 20.0968 13.9757 20.0968 16.3043C20.0968 20.0023 17.0817 23 13.3625 23H4.51928C4.17855 23 3.90234 22.7245 3.90234 22.3846V15.8091L10.5437 17.5578C10.6261 17.5795 10.7104 17.5305 10.7322 17.4483C10.7356 17.4355 10.7373 17.4223 10.7373 17.409V13.6066C10.7373 13.5217 10.8063 13.4528 10.8915 13.4528C10.9054 13.4528 10.9192 13.4547 10.9326 13.4583L16.5767 15.0124C16.6588 15.035 16.7438 14.9869 16.7664 14.905C16.7815 14.8505 16.7654 14.7921 16.7244 14.7529L8.61701 7.01531C8.55547 6.95657 8.45783 6.95872 8.39895 7.02012C8.37148 7.04875 8.35615 7.08685 8.35615 7.12647V9.14862C8.35615 9.23359 8.2871 9.30247 8.20192 9.30247C8.17375 9.30247 8.14613 9.29477 8.12203 9.28022L3.90234 6.73138V1.61538C3.90234 1.27552 4.17855 1 4.51928 1H13.122Z" fill="url(#paint0_radial)"/>
<defs>
<radialGradient id="paint0_radial" cx="0" cy="0" r="1" gradientUnits="userSpaceOnUse" gradientTransform="translate(-1.83384 -5.31571) rotate(39.7839) scale(35.8942 43.3247)">
<stop offset="0.286458" stop-color="#F26AB2"/>
<stop offset="0.7769" stop-color="#B64FC6"/>
<stop offset="1" stop-color="#A748CB"/>
</radialGradient>
</defs>
</svg>
