<svg width="440" height="184" viewBox="0 0 440 184" fill="none" xmlns="http://www.w3.org/2000/svg">
<path fill-rule="evenodd" clip-rule="evenodd" d="M330 83.2145V114.401C330 114.954 330.374 115.437 330.91 115.576L355.391 121.96C356.042 122.13 356.707 121.741 356.877 121.093C356.904 120.992 356.917 120.889 356.917 120.785V108.26C356.917 107.589 357.462 107.045 358.135 107.045C358.243 107.045 358.351 107.06 358.456 107.088L376.461 111.998C377.11 112.175 377.779 111.794 377.957 111.147C378.075 110.715 377.946 110.253 377.62 109.945L350 83.8385C349.512 83.3771 348.741 83.3977 348.278 83.8845C348.064 84.1101 347.945 84.4091 347.945 84.7199V89.6604C347.945 90.3311 347.399 90.8747 346.727 90.8747C346.506 90.8747 346.29 90.815 346.101 90.7018L331.844 82.1732C331.267 81.8282 330.519 82.0147 330.173 82.5899C330.06 82.7786 330 82.9945 330 83.2145Z" fill="url(#paint0_radial)"/>
<path d="M112.461 128C115.139 128 117.61 127.467 119.876 126.401C122.142 125.335 124.099 123.874 125.747 122.017C127.395 120.16 128.683 117.977 129.61 115.467C130.537 112.957 131 110.258 131 107.37C131 104.275 130.485 101.679 129.455 99.5817C128.425 97.4842 127.138 95.765 125.593 94.4241C124.048 93.0831 122.365 92.1032 120.546 91.4842C118.726 90.8653 117.027 90.5559 115.448 90.5559V89.937C117.096 89.8682 118.692 89.5244 120.237 88.9054C121.782 88.2865 123.155 87.3582 124.357 86.1203C125.558 84.8825 126.52 83.3181 127.241 81.4269C127.962 79.5358 128.322 77.2149 128.322 74.4642C128.322 71.7135 127.893 69.1862 127.035 66.8825C126.176 64.5788 124.923 62.6361 123.275 61.0544C121.627 59.4728 119.619 58.235 117.25 57.341C114.881 56.447 112.22 56 109.268 56H76V128H112.461ZM106.05 86H89V68H106.05C108.561 68 110.513 68.6536 111.908 69.9609C113.303 71.2682 114 73.095 114 75.4413V78.5587C114 80.905 113.303 82.7318 111.908 84.0391C110.513 85.3464 108.561 86 106.05 86ZM108.818 116H90V97H108.818C111.409 97 113.42 97.6774 114.852 99.0321C116.284 100.387 117 102.317 117 104.824V108.278C117 110.784 116.284 112.698 114.852 114.019C113.42 115.34 111.409 116 108.818 116ZM160.948 129C164.797 129 168.268 128.35 171.361 127.051C174.454 125.752 177.082 123.872 179.247 121.41C181.412 118.949 183.079 115.991 184.247 112.538C185.416 109.085 186 105.205 186 100.897C186 96.5897 185.416 92.7265 184.247 89.3077C183.079 85.8889 181.412 82.9658 179.247 80.5385C177.082 78.1111 174.454 76.2479 171.361 74.9487C168.268 73.6496 164.797 73 160.948 73C157.1 73 153.646 73.6496 150.588 74.9487C147.529 76.2479 144.918 78.1111 142.753 80.5385C140.588 82.9658 138.921 85.8889 137.753 89.3077C136.584 92.7265 136 96.5897 136 100.897C136 105.205 136.584 109.085 137.753 112.538C138.921 115.991 140.588 118.949 142.753 121.41C144.918 123.872 147.529 125.752 150.588 127.051C153.646 128.35 157.1 129 160.948 129ZM160.949 118C157.57 118 154.9 116.936 152.94 114.809C150.98 112.681 150 109.559 150 105.441V95.4559C150 91.4069 150.98 88.3186 152.94 86.1912C154.9 84.0637 157.57 83 160.949 83C164.396 83 167.1 84.0637 169.06 86.1912C171.02 88.3186 172 91.4069 172 95.4559V105.441C172 109.559 171.02 112.681 169.06 114.809C167.1 116.936 164.396 118 160.949 118ZM215.948 129C219.797 129 223.268 128.35 226.361 127.051C229.454 125.752 232.082 123.872 234.247 121.41C236.412 118.949 238.079 115.991 239.247 112.538C240.416 109.085 241 105.205 241 100.897C241 96.5897 240.416 92.7265 239.247 89.3077C238.079 85.8889 236.412 82.9658 234.247 80.5385C232.082 78.1111 229.454 76.2479 226.361 74.9487C223.268 73.6496 219.797 73 215.948 73C212.1 73 208.646 73.6496 205.588 74.9487C202.529 76.2479 199.918 78.1111 197.753 80.5385C195.588 82.9658 193.921 85.8889 192.753 89.3077C191.584 92.7265 191 96.5897 191 100.897C191 105.205 191.584 109.085 192.753 112.538C193.921 115.991 195.588 118.949 197.753 121.41C199.918 123.872 202.529 125.752 205.588 127.051C208.646 128.35 212.1 129 215.948 129ZM215.949 118C212.57 118 209.9 116.936 207.94 114.809C205.98 112.681 205 109.559 205 105.441V95.4559C205 91.4069 205.98 88.3186 207.94 86.1912C209.9 84.0637 212.57 83 215.949 83C219.396 83 222.1 84.0637 224.06 86.1912C226.02 88.3186 227 91.4069 227 95.4559V105.441C227 109.559 226.02 112.681 224.06 114.809C222.1 116.936 219.396 118 215.949 118ZM260.212 128V92.4663C260.212 91.0243 260.504 89.7712 261.089 88.7069C261.674 87.6426 262.431 86.75 263.36 86.029C264.289 85.3081 265.355 84.7587 266.56 84.3811C267.764 84.0034 268.985 83.8146 270.224 83.8146C276.004 83.8146 278.894 87.6598 278.894 95.3502V128H292.106V92.4663C292.106 91.0243 292.381 89.7712 292.932 88.7069C293.482 87.6426 294.222 86.75 295.151 86.029C296.08 85.3081 297.146 84.7587 298.351 84.3811C299.555 84.0034 300.811 83.8146 302.118 83.8146C307.898 83.8146 310.788 87.6598 310.788 95.3502V128H324V94.0112C324 87.2821 322.572 82.098 319.716 78.4588C316.861 74.8196 312.784 73 307.485 73C303.15 73 299.555 74.0471 296.699 76.1414C293.843 78.2356 291.934 80.7934 290.971 83.8146H290.764C289.457 80.1754 287.461 77.4632 284.777 75.6779C282.094 73.8926 278.894 73 275.178 73C271.118 73 267.953 73.9956 265.682 75.9869C263.412 77.9782 261.76 80.3814 260.728 83.1966H260.212V74.236H247V128H260.212Z" fill="white"/>
<defs>
<radialGradient id="paint0_radial" cx="0" cy="0" r="1" gradientUnits="userSpaceOnUse" gradientTransform="translate(312.998 70.5169) rotate(27.0577) scale(91.8048 91.2866)">
<stop offset="0.286458" stop-color="#F26AB2"/>
<stop offset="0.7769" stop-color="#B64FC6"/>
<stop offset="1" stop-color="#A748CB"/>
</radialGradient>
</defs>
</svg>
