<?xml version="1.0" encoding="UTF-8" standalone="no"?>
<!DOCTYPE svg PUBLIC "-//W3C//DTD SVG 1.1//EN" "http://www.w3.org/Graphics/SVG/1.1/DTD/svg11.dtd">
<svg width="100%" height="100%" viewBox="0 0 294 73" version="1.1" xmlns="http://www.w3.org/2000/svg" xmlns:xlink="http://www.w3.org/1999/xlink" xml:space="preserve" xmlns:serif="http://www.serif.com/" style="fill-rule:evenodd;clip-rule:evenodd;stroke-linejoin:round;stroke-miterlimit:2;">
    <path d="M246,27.215L246,58.401C246,58.954 246.374,59.437 246.91,59.576L271.391,65.96C272.042,66.13 272.707,65.741 272.877,65.093C272.904,64.992 272.917,64.889 272.917,64.785L272.917,52.26C272.917,51.589 273.462,51.045 274.135,51.045C274.243,51.045 274.351,51.06 274.456,51.088L292.461,55.998C293.11,56.175 293.779,55.794 293.957,55.147C294.075,54.715 293.946,54.254 293.62,53.946L266,27.839C265.512,27.377 264.741,27.398 264.278,27.885C264.064,28.11 263.945,28.409 263.945,28.72L263.945,33.66C263.945,34.331 263.399,34.875 262.727,34.875C262.506,34.875 262.29,34.815 262.101,34.702L247.844,26.173C247.267,25.828 246.519,26.015 246.173,26.59C246.06,26.779 246,26.994 246,27.215Z" style="fill:url(#_Radial1);"/>
    <path d="M36.461,72C39.139,72 41.611,71.467 43.876,70.401C46.142,69.335 48.099,67.874 49.747,66.017C51.395,64.161 52.683,61.977 53.609,59.467C54.536,56.957 55,54.258 55,51.37C55,48.275 54.485,45.679 53.455,43.582C52.425,41.484 51.138,39.765 49.593,38.424C48.048,37.083 46.365,36.103 44.546,35.484C42.726,34.865 41.027,34.556 39.448,34.556L39.448,33.937C41.096,33.868 42.692,33.524 44.237,32.905C45.782,32.286 47.155,31.358 48.357,30.12C49.558,28.883 50.52,27.318 51.241,25.427C51.962,23.536 52.322,21.215 52.322,18.464C52.322,15.714 51.893,13.186 51.035,10.883C50.176,8.579 48.923,6.636 47.275,5.054C45.627,3.473 43.619,2.235 41.25,1.341C38.881,0.447 36.22,0 33.268,0L0,0L0,72L36.461,72ZM30.05,30L13,30L13,12L30.05,12C32.561,12 34.513,12.654 35.908,13.961C37.303,15.268 38,17.095 38,19.441L38,22.559C38,24.905 37.303,26.732 35.908,28.039C34.513,29.346 32.561,30 30.05,30ZM32.818,60L14,60L14,41L32.818,41C35.409,41 37.42,41.677 38.852,43.032C40.284,44.387 41,46.317 41,48.824L41,52.278C41,54.784 40.284,56.698 38.852,58.019C37.42,59.34 35.409,60 32.818,60ZM82.948,73C86.797,73 90.268,72.35 93.361,71.051C96.454,69.752 99.083,67.872 101.247,65.41C103.412,62.949 105.079,59.992 106.247,56.539C107.416,53.086 108,49.205 108,44.897C108,40.59 107.416,36.727 106.247,33.308C105.079,29.889 103.412,26.966 101.247,24.539C99.083,22.111 96.454,20.248 93.361,18.949C90.268,17.65 86.797,17 82.948,17C79.1,17 75.646,17.65 72.588,18.949C69.529,20.248 66.918,22.111 64.753,24.539C62.588,26.966 60.921,29.889 59.753,33.308C58.584,36.727 58,40.59 58,44.897C58,49.205 58.584,53.086 59.753,56.539C60.921,59.992 62.588,62.949 64.753,65.41C66.918,67.872 69.529,69.752 72.588,71.051C75.646,72.35 79.1,73 82.948,73ZM82.949,62C79.57,62 76.9,60.936 74.94,58.809C72.98,56.681 72,53.559 72,49.441L72,39.456C72,35.407 72.98,32.319 74.94,30.191C76.9,28.064 79.57,27 82.949,27C86.396,27 89.1,28.064 91.06,30.191C93.02,32.319 94,35.407 94,39.456L94,49.441C94,53.559 93.02,56.681 91.06,58.809C89.1,60.936 86.396,62 82.949,62ZM135.948,73C139.797,73 143.268,72.35 146.361,71.051C149.454,69.752 152.082,67.872 154.247,65.41C156.412,62.949 158.079,59.992 159.247,56.539C160.416,53.086 161,49.205 161,44.897C161,40.59 160.416,36.727 159.247,33.308C158.079,29.889 156.412,26.966 154.247,24.539C152.082,22.111 149.454,20.248 146.361,18.949C143.268,17.65 139.797,17 135.948,17C132.1,17 128.646,17.65 125.588,18.949C122.529,20.248 119.918,22.111 117.753,24.539C115.588,26.966 113.921,29.889 112.753,33.308C111.584,36.727 111,40.59 111,44.897C111,49.205 111.584,53.086 112.753,56.539C113.921,59.992 115.588,62.949 117.753,65.41C119.918,67.872 122.529,69.752 125.588,71.051C128.646,72.35 132.1,73 135.948,73ZM135.949,62C132.57,62 129.9,60.936 127.94,58.809C125.98,56.681 125,53.559 125,49.441L125,39.456C125,35.407 125.98,32.319 127.94,30.191C129.9,28.064 132.57,27 135.949,27C139.396,27 142.1,28.064 144.06,30.191C146.02,32.319 147,35.407 147,39.456L147,49.441C147,53.559 146.02,56.681 144.06,58.809C142.1,60.936 139.396,62 135.949,62ZM178.212,72L178.212,36.466C178.212,35.024 178.504,33.771 179.089,32.707C179.674,31.643 180.431,30.75 181.36,30.029C182.289,29.308 183.355,28.759 184.56,28.381C185.764,28.003 186.985,27.815 188.224,27.815C194.004,27.815 196.894,31.66 196.894,39.35L196.894,72L210.106,72L210.106,36.466C210.106,35.024 210.381,33.771 210.932,32.707C211.482,31.643 212.222,30.75 213.151,30.029C214.08,29.308 215.146,28.759 216.351,28.381C217.555,28.003 218.811,27.815 220.118,27.815C225.898,27.815 228.788,31.66 228.788,39.35L228.788,72L242,72L242,38.011C242,31.282 240.572,26.098 237.716,22.459C234.861,18.82 230.784,17 225.485,17C221.15,17 217.555,18.047 214.699,20.141C211.843,22.236 209.934,24.793 208.97,27.815L208.764,27.815C207.457,24.175 205.461,21.463 202.777,19.678C200.094,17.893 196.894,17 193.178,17C189.118,17 185.953,17.996 183.682,19.987C181.412,21.978 179.76,24.381 178.728,27.197L178.212,27.197L178.212,18.236L165,18.236L165,72L178.212,72Z" style="fill:rgb(21,9,25);fill-rule:nonzero;"/>
    <defs>
        <radialGradient id="_Radial1" cx="0" cy="0" r="1" gradientUnits="userSpaceOnUse" gradientTransform="matrix(81.7567,41.7609,-41.5251,81.2952,228.998,14.5169)"><stop offset="0" style="stop-color:rgb(242,106,178);stop-opacity:1"/><stop offset="0.29" style="stop-color:rgb(242,106,178);stop-opacity:1"/><stop offset="0.78" style="stop-color:rgb(182,79,198);stop-opacity:1"/><stop offset="1" style="stop-color:rgb(167,72,203);stop-opacity:1"/></radialGradient>
    </defs>
</svg>
