<svg xmlns="http://www.w3.org/2000/svg" width="240" height="240" fill="none"><path fill="url(#a)" fill-rule="evenodd" d="M133.347 48c20.576 0 37.257 16.585 37.257 37.043 0 10.432-4.337 19.857-11.315 26.589l-.4-.275.411.298c11.874 7.852 19.7 21.277 19.7 36.519C179 172.378 159.265 192 134.921 192H77.038A4.033 4.033 0 0 1 73 187.972v-43.04l43.471 11.446a1.009 1.009 0 0 0 1.267-.973v-24.889a1.008 1.008 0 0 1 1.278-.971l36.944 10.173a1.01 1.01 0 0 0 .966-1.699L103.86 87.373a1.012 1.012 0 0 0-1.708.728v13.235a1.008 1.008 0 0 1-1.532.862L73 85.515V52.027A4.033 4.033 0 0 1 77.038 48h56.309Z" clip-rule="evenodd"/><defs><radialGradient id="a" cx="0" cy="0" r="1" gradientTransform="matrix(180.54586 150.3392 -181.46108 217.92084 35.454 6.66)" gradientUnits="userSpaceOnUse"><stop offset=".286" stop-color="#F26AB2"/><stop offset=".777" stop-color="#B64FC6"/><stop offset="1" stop-color="#A748CB"/></radialGradient></defs></svg>